<?xml version="1.0" standalone="no"?>
<!DOCTYPE svg PUBLIC "-//W3C//DTD SVG 20010904//EN"
 "http://www.w3.org/TR/2001/REC-SVG-20010904/DTD/svg10.dtd">
<svg version="1.0" xmlns="http://www.w3.org/2000/svg"
 width="529.000000pt" height="467.000000pt" viewBox="0 0 529.000000 467.000000"
 preserveAspectRatio="xMidYMid meet">

<g transform="translate(0.000000,467.000000) scale(0.100000,-0.100000)"
fill="#4e7713" stroke="none">
<path d="M505 4653 c-102 -14 -224 -68 -297 -132 -66 -58 -140 -173 -169 -262
l-24 -74 0 -1860 0 -1860 23 -67 c63 -183 224 -328 413 -373 56 -13 324 -15
2195 -15 2089 0 2132 0 2208 20 201 51 339 189 405 404 l21 68 0 1830 c0 1638
-2 1837 -16 1892 -40 155 -157 303 -294 370 -144 70 -1 66 -2333 65 -1156 -1
-2115 -4 -2132 -6z m4336 -169 c146 -56 236 -155 274 -301 12 -45 15 -128 15
-400 l0 -343 -2485 0 -2485 0 0 335 c0 353 5 402 47 492 53 114 182 211 309
232 27 5 999 8 2159 7 l2110 -1 56 -21z m289 -2572 c0 -1506 3 -1422 -62
-1544 -36 -68 -87 -117 -157 -153 -116 -58 21 -55 -2257 -55 -1381 0 -2110 3
-2145 10 -127 24 -241 106 -293 209 -58 113 -56 58 -56 1532 0 746 3 1359 7
1362 3 4 1122 7 2485 7 l2478 0 0 -1368z"/>
<path d="M556 4220 c-43 -13 -101 -57 -130 -99 -77 -110 -57 -267 45 -354 43
-37 118 -67 169 -67 90 0 199 71 240 156 65 133 -9 310 -148 360 -42 15 -132
17 -176 4z m134 -155 c87 -45 78 -162 -17 -201 -28 -12 -38 -12 -66 0 -68 28
-94 94 -62 156 28 54 90 73 145 45z"/>
<path d="M1425 4221 c-52 -13 -91 -39 -132 -85 -86 -98 -86 -244 0 -342 59
-67 107 -89 197 -89 86 0 128 17 186 72 53 52 74 105 74 188 0 110 -47 188
-143 236 -44 23 -134 33 -182 20z m110 -155 c91 -38 82 -178 -13 -207 -33 -9
-45 -9 -76 6 -96 46 -84 173 19 207 30 9 33 9 70 -6z"/>
<path d="M2285 4221 c-88 -22 -151 -76 -188 -160 -15 -35 -18 -59 -15 -115 5
-81 22 -120 74 -170 48 -46 98 -69 164 -74 113 -8 203 42 254 140 36 72 39
165 6 233 -24 50 -87 110 -134 130 -43 18 -123 26 -161 16z m114 -165 c48 -26
68 -108 35 -154 -19 -27 -65 -52 -96 -52 -35 0 -83 34 -97 69 -41 97 62 186
158 137z"/>
<path d="M2770 2737 c-13 -7 -30 -23 -37 -37 -12 -23 -347 -1593 -360 -1687
-5 -35 -2 -45 20 -67 38 -38 93 -31 117 13 12 24 360 1674 360 1711 0 54 -54
90 -100 67z"/>
<path d="M2062 2389 c-21 -8 -488 -400 -576 -482 -28 -27 -36 -42 -36 -70 0
-34 9 -44 173 -184 464 -400 457 -395 510 -353 20 16 27 30 27 55 0 41 -6 46
-294 291 -123 104 -222 192 -220 196 3 4 107 94 232 200 267 227 282 241 282
278 0 52 -51 88 -98 69z"/>
<path d="M3173 2390 c-26 -11 -43 -40 -43 -74 0 -32 15 -46 293 -281 124 -104
225 -193 224 -196 -1 -4 -99 -89 -217 -189 -274 -232 -300 -257 -300 -290 0
-36 38 -70 78 -70 35 0 58 18 420 328 112 95 207 184 212 198 7 18 6 33 -4 53
-14 26 -552 492 -599 518 -26 14 -34 15 -64 3z"/>
</g>
</svg>
