<?xml version="1.0" standalone="no"?>
<!DOCTYPE svg PUBLIC "-//W3C//DTD SVG 20010904//EN"
 "http://www.w3.org/TR/2001/REC-SVG-20010904/DTD/svg10.dtd">
<svg version="1.0" xmlns="http://www.w3.org/2000/svg"
 width="470.000000pt" height="469.000000pt" viewBox="0 0 470.000000 469.000000"
 preserveAspectRatio="xMidYMid meet">

<g transform="translate(0.000000,469.000000) scale(0.100000,-0.100000)"
fill="#4e7713" stroke="none">
<path d="M195 4678 c-20 -4 -49 -14 -64 -23 -41 -21 -96 -88 -109 -134 -9 -28
-12 -517 -12 -1907 0 -1786 1 -1871 19 -1909 21 -47 89 -111 128 -122 16 -5
177 -8 359 -8 312 0 333 1 353 19 27 25 28 79 1 106 -19 19 -33 20 -325 20
-347 0 -369 4 -380 62 -3 18 -4 862 -3 1876 3 1812 3 1844 22 1858 17 12 174
14 1033 14 l1013 0 0 -238 c0 -275 7 -313 70 -384 23 -27 61 -55 92 -69 50
-22 67 -24 280 -27 l226 -4 4 -158 c3 -152 4 -160 27 -184 29 -31 73 -34 100
-7 28 28 34 86 30 293 -4 174 -5 185 -29 225 -20 33 -457 509 -589 641 -69 69
5 65 -1158 66 -579 1 -1068 -2 -1088 -6z m2399 -495 c102 -111 186 -207 186
-214 0 -16 -306 -8 -338 10 -13 7 -32 27 -42 44 -18 29 -20 51 -20 212 0 151
2 177 14 165 7 -8 97 -106 200 -217z"/>
<path d="M3312 4683 c-19 -2 -38 -13 -46 -26 -17 -27 -77 -297 -78 -351 -1
-46 27 -76 71 -76 50 0 70 36 98 174 l26 126 69 0 c37 0 68 -2 68 -4 0 -26 55
-246 65 -262 8 -13 53 -36 112 -59 54 -21 119 -48 145 -61 65 -33 103 -31 163
10 28 18 75 49 106 69 l57 36 46 -40 c25 -22 46 -45 46 -50 0 -4 -31 -56 -70
-115 -38 -58 -70 -117 -70 -130 0 -30 117 -313 139 -336 9 -10 64 -27 136 -43
77 -16 124 -31 133 -42 6 -9 12 -40 12 -69 l0 -51 -107 -22 c-141 -29 -175
-42 -190 -71 -38 -75 -123 -297 -123 -320 0 -58 78 -84 124 -41 13 12 47 76
76 141 30 68 60 122 69 124 9 3 61 15 116 26 55 12 119 33 143 46 l42 25 0
159 0 160 -47 24 c-27 13 -75 29 -108 35 -33 7 -83 19 -111 27 l-52 14 -41 97
c-23 54 -41 104 -41 111 0 7 26 52 59 100 76 114 94 150 87 176 -3 11 -55 70
-115 130 -91 90 -114 109 -139 108 -18 0 -69 -27 -137 -71 -60 -39 -117 -71
-127 -71 -23 0 -190 68 -204 83 -6 7 -23 70 -37 142 -18 86 -34 136 -46 149
-16 16 -37 19 -153 21 -73 2 -148 1 -166 -2z"/>
<path d="M3406 4029 c-18 -14 -26 -30 -26 -53 0 -54 17 -67 116 -82 164 -27
280 -104 346 -231 61 -117 71 -208 38 -338 -11 -43 -20 -90 -20 -105 0 -56 80
-85 120 -44 11 11 32 67 49 133 28 106 30 120 20 190 -22 164 -71 266 -183
377 -91 91 -170 135 -284 159 -96 21 -144 19 -176 -6z"/>
<path d="M408 4014 c-23 -12 -28 -21 -28 -54 0 -57 37 -83 109 -78 41 4 59 11
73 28 25 31 23 72 -5 98 -28 26 -106 30 -149 6z"/>
<path d="M800 4010 c-27 -27 -26 -81 1 -106 20 -18 46 -19 547 -22 561 -3 575
-2 593 45 14 37 11 52 -16 78 l-24 25 -541 0 c-527 0 -540 0 -560 -20z"/>
<path d="M433 3695 c-97 -42 -63 -145 48 -145 61 0 99 28 99 74 0 35 -16 54
-63 74 -35 15 -44 15 -84 -3z"/>
<path d="M806 3679 c-36 -29 -36 -80 1 -109 26 -20 31 -20 564 -18 592 3 562
0 575 65 5 26 1 37 -19 57 l-26 26 -534 0 c-525 0 -535 0 -561 -21z"/>
<path d="M402 3350 c-29 -27 -29 -83 -2 -110 31 -31 123 -28 155 5 34 33 33
77 -1 104 -37 29 -121 29 -152 1z"/>
<path d="M806 3349 c-36 -28 -36 -80 0 -108 26 -20 38 -21 319 -21 271 0 294
1 316 19 32 26 32 86 0 112 -22 18 -45 19 -316 19 -281 0 -293 -1 -319 -21z"/>
<path d="M2199 3293 c-52 -8 -132 -66 -164 -117 l-30 -49 -3 -218 -3 -218
-357 -4 c-256 -2 -367 -7 -392 -16 -54 -20 -111 -62 -147 -109 -66 -86 -63
-34 -63 -1223 0 -1053 0 -1080 20 -1132 25 -67 75 -115 167 -161 l73 -36 1573
0 1574 0 62 31 c68 34 102 72 152 171 l29 57 0 1072 0 1072 -22 59 c-24 68
-92 150 -147 177 -69 35 -134 41 -466 41 l-325 0 0 188 c0 219 -10 270 -68
334 -20 23 -57 51 -82 62 -44 21 -58 21 -700 22 -360 1 -667 -1 -681 -3z
m1304 -154 c67 -18 72 -37 72 -254 l0 -190 -75 0 -75 0 -3 153 -3 152 -559 0
-560 0 0 -155 0 -155 -76 0 -75 0 3 199 c3 220 6 231 72 250 45 13 1232 13
1279 0z m-233 -374 l0 -75 -405 0 -405 0 0 75 0 75 405 0 405 0 0 -75z m1147
-240 c64 -19 97 -57 112 -125 6 -28 11 -152 11 -278 0 -216 -1 -230 -23 -272
-29 -59 -66 -82 -173 -108 -89 -21 -1070 -212 -1092 -212 -9 0 -12 40 -12 143
0 125 -3 146 -20 175 -36 58 -58 62 -363 62 -268 0 -275 0 -308 -23 -58 -39
-69 -74 -69 -225 l0 -134 -27 6 c-39 8 -1031 196 -1070 203 -18 3 -60 20 -94
37 -99 50 -99 50 -99 365 0 243 2 268 20 306 19 40 57 70 108 85 15 5 707 9
1538 9 1322 1 1517 -1 1561 -14z m-1327 -1054 l0 -289 -28 -53 c-39 -76 -111
-119 -197 -119 -74 0 -129 24 -172 73 -56 64 -63 109 -63 402 0 144 3 265 7
268 3 4 107 7 230 7 l223 0 0 -289z m1450 -488 c0 -422 -4 -671 -10 -695 -14
-48 -55 -97 -97 -114 -27 -12 -294 -14 -1571 -14 l-1538 0 -44 23 c-33 16 -51
34 -67 67 l-23 44 0 668 c0 433 3 668 10 668 5 0 52 -11 104 -25 93 -24 252
-55 671 -134 116 -21 276 -52 358 -67 l147 -29 0 -82 c0 -150 34 -248 116
-330 25 -24 71 -57 102 -71 51 -24 69 -27 167 -27 95 0 116 3 158 24 75 37
142 104 179 179 31 62 33 75 37 184 3 98 6 118 20 122 9 3 252 51 541 106 562
108 623 121 685 144 22 8 43 15 48 15 4 1 7 -295 7 -656z"/>
<path d="M2812 1297 c-31 -33 -29 -80 4 -106 54 -42 118 -13 118 54 0 68 -77
100 -122 52z"/>
</g>
</svg>
