<?xml version="1.0" standalone="no"?>
<!DOCTYPE svg PUBLIC "-//W3C//DTD SVG 20010904//EN"
 "http://www.w3.org/TR/2001/REC-SVG-20010904/DTD/svg10.dtd">
<svg version="1.0" xmlns="http://www.w3.org/2000/svg"
 width="406.000000pt" height="470.000000pt" viewBox="0 0 406.000000 470.000000"
 preserveAspectRatio="xMidYMid meet">

<g transform="translate(0.000000,470.000000) scale(0.100000,-0.100000)"
fill="#4e7713" stroke="none">
<path d="M2944 4678 c-20 -9 -104 -152 -133 -225 -21 -52 -38 -61 -166 -78
-65 -9 -132 -23 -147 -31 -54 -28 -75 -114 -40 -164 9 -14 50 -56 90 -95 108
-102 107 -100 81 -255 -12 -71 -18 -141 -15 -156 4 -15 20 -39 36 -55 47 -47
90 -41 219 31 59 33 117 60 129 60 12 0 70 -27 129 -60 131 -73 177 -79 223
-30 38 41 41 68 19 195 -29 168 -33 154 81 270 54 57 102 115 106 129 9 39 -3
75 -39 111 -30 30 -40 33 -162 49 -71 10 -133 20 -138 23 -6 3 -36 61 -69 129
-33 70 -70 132 -85 143 -28 23 -83 27 -119 9z m113 -267 c31 -68 60 -115 75
-125 14 -9 68 -23 119 -31 158 -25 152 -12 55 -120 -58 -64 -87 -104 -91 -127
-3 -18 3 -82 14 -143 10 -60 18 -112 16 -114 -2 -2 -48 19 -102 47 -142 72
-139 72 -272 7 -63 -31 -116 -53 -119 -51 -2 3 3 46 12 95 20 113 20 170 0
201 -9 14 -49 58 -88 98 -53 54 -68 75 -58 81 8 5 55 14 105 21 142 19 147 24
214 156 32 63 61 114 64 114 3 0 28 -49 56 -109z"/>
<path d="M2206 4538 c-39 -55 -15 -93 90 -144 51 -25 55 -25 79 -10 58 38 38
99 -51 148 -60 34 -98 36 -118 6z"/>
<path d="M3652 4520 c-54 -34 -62 -44 -62 -70 0 -50 16 -70 56 -70 42 0 88 22
132 63 35 34 40 61 16 95 -24 35 -70 29 -142 -18z"/>
<path d="M2100 4184 c-19 -22 -16 -72 4 -92 13 -13 35 -17 102 -17 93 0 114
11 114 63 0 55 -13 62 -114 62 -72 0 -96 -4 -106 -16z"/>
<path d="M3684 4174 c-22 -32 -10 -73 26 -91 32 -16 138 -16 170 0 19 9 26 22
28 48 5 58 -14 69 -118 69 -85 0 -90 -1 -106 -26z"/>
<path d="M3610 3900 c-12 -12 -20 -33 -20 -55 0 -32 5 -39 62 -75 72 -47 118
-53 142 -18 35 50 5 92 -106 149 -47 24 -53 24 -78 -1z"/>
<path d="M2264 3879 c-59 -37 -74 -55 -74 -89 0 -33 28 -60 61 -60 64 1 159
75 159 124 0 31 -30 56 -66 56 -17 0 -52 -14 -80 -31z"/>
<path d="M2693 3396 l-28 -24 -5 -1319 -5 -1318 -180 0 -180 0 -5 1020 c-4
798 -8 1025 -18 1042 -21 38 -76 45 -346 41 -264 -3 -283 -6 -308 -51 -10 -17
-14 -238 -16 -1040 l-3 -1017 -177 2 -177 3 -5 687 c-5 642 -6 688 -23 705
-16 16 -45 18 -299 21 -301 3 -327 0 -347 -44 -8 -18 -11 -219 -11 -699 l0
-675 -96 0 c-112 0 -159 -12 -208 -51 -58 -48 -76 -100 -76 -215 0 -86 3 -104
23 -137 13 -21 36 -47 53 -57 28 -19 51 -20 525 -20 468 0 497 1 512 18 22 25
21 75 -1 95 -17 15 -65 17 -483 17 -371 0 -469 3 -483 13 -16 12 -18 25 -14
86 7 125 -195 111 1635 111 1014 0 1591 -4 1603 -10 10 -5 23 -24 29 -41 15
-42 14 -132 -1 -147 -9 -9 -254 -12 -1039 -12 -1138 0 -1059 5 -1059 -64 0
-71 -80 -66 1085 -66 l1048 0 35 22 c49 30 72 86 72 178 -1 140 -31 209 -113
252 -34 18 -63 23 -154 26 l-113 4 0 820 c0 823 -1 848 -34 870 -21 14 -53 8
-72 -13 -18 -20 -19 -53 -24 -848 l-5 -826 -207 -3 -208 -2 0 1275 0 1275 208
-2 207 -3 3 -319 c3 -355 3 -356 68 -356 64 0 64 2 64 403 l0 359 -29 29 -29
29 -281 0 -280 0 -28 -24z m-535 -1678 l-3 -983 -205 0 -205 0 -3 970 c-1 534
0 976 3 983 3 9 55 12 210 12 l205 0 -2 -982z m-1053 -343 l0 -640 -205 0
-205 0 -3 630 c-1 347 0 636 3 643 3 10 51 12 207 10 l203 -3 0 -640z"/>
</g>
</svg>
