<?xml version="1.0" standalone="no"?>
<!DOCTYPE svg PUBLIC "-//W3C//DTD SVG 20010904//EN"
 "http://www.w3.org/TR/2001/REC-SVG-20010904/DTD/svg10.dtd">
<svg version="1.0" xmlns="http://www.w3.org/2000/svg"
 width="469.000000pt" height="469.000000pt" viewBox="0 0 469.000000 469.000000"
 preserveAspectRatio="xMidYMid meet">

<g transform="translate(0.000000,469.000000) scale(0.100000,-0.100000)"
fill="#4e7713" stroke="none">
<path d="M2049 4666 c-62 -16 -104 -48 -136 -104 -27 -46 -28 -52 -33 -232
l-5 -184 -145 -62 c-80 -34 -151 -63 -157 -63 -7 -1 -66 51 -130 114 -65 64
-136 124 -158 135 -54 26 -136 26 -195 -1 -63 -28 -411 -376 -439 -439 -25
-54 -27 -136 -6 -187 9 -21 69 -90 137 -159 l121 -123 -57 -145 c-36 -92 -65
-152 -79 -161 -17 -12 -55 -15 -183 -15 -158 0 -163 -1 -215 -28 -33 -17 -65
-44 -83 -70 -26 -37 -30 -53 -38 -159 -5 -65 -7 -205 -3 -312 7 -217 13 -241
81 -300 42 -37 73 -51 115 -51 l29 0 0 70 c0 66 -1 70 -29 84 -16 9 -31 23
-35 31 -3 9 -6 133 -6 276 l0 260 25 24 c24 25 25 25 233 25 151 0 213 3 224
13 9 6 32 59 51 117 38 113 76 199 131 296 l34 61 -149 149 c-150 150 -176
185 -166 226 4 13 89 105 190 206 166 165 186 182 218 182 31 0 49 -15 192
-159 l157 -159 85 48 c91 51 229 107 335 138 l65 18 5 227 c5 219 6 227 28
249 22 22 28 23 266 26 269 4 307 -3 326 -53 6 -15 10 -115 10 -223 0 -108 4
-203 9 -210 4 -7 48 -28 97 -46 49 -19 156 -63 238 -100 l150 -66 157 155
c139 137 160 155 190 155 29 0 52 -19 210 -176 97 -97 182 -186 189 -199 7
-13 10 -34 7 -48 -4 -13 -77 -93 -163 -179 l-156 -155 45 -80 c56 -98 109
-223 136 -321 11 -39 22 -76 26 -82 4 -6 88 -10 226 -10 l220 0 24 -25 25 -24
0 -265 0 -265 -35 -28 c-34 -27 -35 -30 -35 -95 0 -68 0 -68 28 -68 38 1 102
32 134 66 55 59 58 78 58 393 l0 289 -28 53 c-20 39 -41 62 -77 84 -48 30 -49
30 -231 35 -103 3 -187 9 -192 15 -5 6 -35 76 -67 158 l-59 147 121 123 c131
132 153 169 153 251 -1 90 -25 125 -228 328 -205 205 -238 228 -332 228 -81 0
-122 -25 -250 -149 -79 -77 -121 -111 -138 -111 -22 0 -265 94 -289 112 -8 7
-13 65 -15 186 -3 163 -5 181 -27 225 -29 59 -85 102 -152 116 -70 15 -521 13
-580 -3z"/>
<path d="M2189 3660 c-365 -62 -708 -323 -840 -638 -43 -104 -78 -250 -86
-355 l-6 -88 74 3 74 3 7 78 c30 327 240 623 542 762 122 57 206 76 353 82
141 6 209 -2 323 -39 230 -74 441 -253 550 -468 50 -98 100 -289 100 -381 l0
-39 75 0 75 0 0 44 c0 53 -25 201 -47 275 -111 383 -455 682 -871 756 -83 15
-248 18 -323 5z"/>
<path d="M2260 2879 c-171 -29 -319 -170 -365 -346 -63 -241 86 -495 329 -559
112 -30 264 -9 360 49 64 39 145 128 176 192 167 342 -124 728 -500 664z m192
-166 c64 -20 140 -90 175 -161 58 -119 27 -273 -74 -361 -156 -138 -398 -90
-490 97 -23 47 -28 70 -28 132 1 96 29 162 96 225 94 88 192 109 321 68z"/>
<path d="M950 2569 c-79 -10 -171 -54 -238 -114 -234 -210 -194 -590 79 -748
136 -78 332 -76 471 6 64 37 145 128 178 199 82 177 49 377 -86 519 -65 68
-167 124 -242 134 -26 3 -58 7 -72 9 -14 1 -54 -1 -90 -5z m207 -177 c66 -34
109 -78 143 -144 26 -52 30 -72 30 -138 0 -66 -4 -86 -31 -138 -95 -191 -347
-232 -498 -81 -78 78 -110 200 -81 305 25 87 107 175 197 209 57 22 186 15
240 -13z"/>
<path d="M3602 2568 c-159 -18 -310 -140 -372 -303 -31 -81 -32 -224 -2 -307
41 -114 137 -218 248 -270 55 -26 82 -32 160 -36 159 -8 284 42 381 152 153
173 151 443 -2 614 -106 117 -247 169 -413 150z m171 -164 c61 -21 141 -93
175 -158 23 -44 27 -63 27 -136 0 -73 -4 -92 -27 -135 -56 -106 -164 -175
-275 -175 -127 0 -229 63 -284 176 -77 155 -14 335 143 414 50 24 74 30 128
30 36 0 87 -7 113 -16z"/>
<path d="M2090 1869 c-226 -6 -262 -14 -385 -77 -51 -26 -96 -62 -165 -131
l-95 -96 -440 -5 -440 -6 -82 -27 c-147 -49 -289 -164 -371 -300 -81 -134
-107 -291 -99 -587 3 -135 9 -200 22 -240 45 -145 143 -263 268 -325 123 -60
163 -65 620 -65 l407 0 0 75 0 75 -350 0 -350 0 0 425 0 425 -75 0 -75 0 0
-415 0 -415 -23 0 c-40 0 -143 58 -187 106 -63 68 -90 136 -102 256 -14 139
-5 397 17 468 60 196 204 335 400 385 48 12 130 15 423 15 341 0 363 -1 358
-17 -25 -89 -29 -167 -29 -598 -1 -519 0 -525 72 -627 46 -64 112 -111 186
-134 31 -10 108 -18 203 -21 l152 -6 0 622 0 621 -75 0 -75 0 -2 -542 -3 -543
-38 -3 c-69 -6 -147 25 -197 76 -73 76 -73 76 -71 575 3 480 4 496 63 617 42
87 141 186 228 228 122 59 146 62 565 62 419 0 443 -3 564 -62 86 -41 186
-141 228 -228 62 -126 63 -140 63 -626 0 -471 -1 -486 -51 -553 -43 -59 -156
-100 -233 -86 l-36 7 0 539 0 539 -70 0 -70 0 0 -621 0 -621 158 4 c133 4 166
8 215 27 76 30 167 114 204 189 l28 57 9 335 c8 310 1 563 -21 748 l-5 42 358
0 c281 0 373 -3 422 -15 190 -45 347 -199 396 -388 20 -78 30 -349 17 -471
-12 -119 -42 -188 -113 -259 -49 -49 -135 -97 -175 -97 l-23 0 0 420 0 420
-75 0 -75 0 0 -430 0 -430 -350 0 -350 0 0 -76 0 -75 443 3 442 3 72 26 c178
66 308 214 345 395 8 37 12 149 12 304 0 231 -2 250 -25 325 -65 211 -232 391
-422 454 -100 34 -207 41 -604 41 l-371 0 -99 98 c-79 80 -114 107 -180 140
-45 22 -115 47 -155 56 -86 17 -417 25 -728 15z"/>
<path d="M2040 85 l0 -75 305 0 305 0 0 75 0 75 -305 0 -305 0 0 -75z"/>
</g>
</svg>
