<?xml version="1.0" standalone="no"?>
<!DOCTYPE svg PUBLIC "-//W3C//DTD SVG 20010904//EN"
 "http://www.w3.org/TR/2001/REC-SVG-20010904/DTD/svg10.dtd">
<svg version="1.0" xmlns="http://www.w3.org/2000/svg"
 width="466.000000pt" height="466.000000pt" viewBox="0 0 466.000000 466.000000"
 preserveAspectRatio="xMidYMid meet">

<g transform="translate(0.000000,466.000000) scale(0.100000,-0.100000)"
fill="#4e7713" stroke="none">
<path d="M1282 4635 c-59 -18 -106 -57 -139 -113 -27 -46 -28 -52 -33 -232
l-5 -185 -140 -7 c-208 -10 -363 -60 -520 -169 -150 -103 -262 -235 -339 -400
-59 -126 -86 -238 -93 -380 -5 -101 -2 -129 20 -226 33 -138 64 -223 116 -310
95 -163 243 -299 416 -383 146 -71 223 -91 395 -98 l145 -7 5 -970 c5 -922 6
-972 24 -1008 22 -44 61 -79 127 -113 l48 -24 1573 0 1573 0 50 24 c59 28 107
76 132 131 17 38 18 128 21 1745 2 938 0 1724 -3 1747 -6 41 -30 67 -463 500
-251 252 -468 466 -482 475 -23 17 -99 18 -1205 17 -955 0 -1188 -3 -1223 -14z
m2308 -564 c0 -418 0 -429 21 -455 l20 -26 435 0 434 0 0 -1675 c0 -1864 5
-1724 -68 -1745 -26 -8 -492 -10 -1574 -8 l-1538 3 -27 28 -28 27 -3 948 c-1
521 0 956 3 968 3 15 29 31 94 58 303 126 516 364 598 671 23 87 26 119 26
250 0 131 -3 163 -26 250 -82 306 -305 556 -594 667 -43 16 -84 37 -90 46 -20
25 -18 324 2 362 32 63 -38 59 1193 60 l1122 0 0 -429z m780 -323 c0 -5 -139
-8 -310 -8 l-310 0 0 317 0 318 310 -310 c171 -170 310 -313 310 -317z m-3448
-238 c3 -396 4 -431 21 -447 16 -17 52 -18 450 -23 l432 -5 -3 -40 c-5 -66
-31 -156 -68 -234 -196 -416 -687 -597 -1101 -406 -238 110 -419 335 -474 590
-19 88 -17 265 5 355 62 253 244 475 475 577 67 30 183 62 228 62 l32 1 3
-430z m356 390 c92 -31 166 -73 250 -140 156 -125 280 -347 294 -525 l3 -40
-372 -3 -373 -2 0 376 0 376 58 -7 c31 -3 94 -19 140 -35z"/>
<path d="M2286 4074 c-14 -15 -26 -33 -26 -41 0 -30 33 -71 63 -77 16 -3 248
-6 514 -6 l485 0 30 30 c24 25 29 36 24 58 -4 15 -16 35 -28 45 -19 16 -59 17
-528 17 l-507 0 -27 -26z"/>
<path d="M2288 3710 c-24 -25 -29 -36 -23 -58 16 -66 -15 -62 550 -62 474 0
514 1 533 18 12 9 24 29 28 44 5 22 0 33 -24 58 l-30 30 -502 0 -502 0 -30
-30z"/>
<path d="M2242 3183 c-21 -8 -43 -61 -36 -88 14 -54 84 -73 122 -32 56 60 -9
151 -86 120z"/>
<path d="M2596 3169 c-36 -28 -36 -80 0 -108 26 -21 34 -21 741 -21 484 0 721
3 734 11 25 13 41 53 33 85 -14 55 -3 54 -772 54 -702 0 -710 0 -736 -21z"/>
<path d="M2221 2794 c-29 -36 -26 -60 9 -96 25 -24 36 -29 58 -23 41 10 62 34
62 72 0 70 -86 101 -129 47z"/>
<path d="M2590 2800 c-25 -25 -26 -71 -1 -101 l19 -24 727 0 727 0 24 28 c31
36 30 62 -1 92 l-24 25 -726 0 c-712 0 -725 0 -745 -20z"/>
<path d="M3930 2211 c-148 -48 -218 -202 -160 -352 l19 -52 -42 -48 c-146
-167 -576 -619 -597 -627 -30 -12 -184 -24 -205 -16 -8 3 -74 80 -146 171
-142 177 -137 166 -124 280 5 42 3 78 -5 108 -17 59 -86 137 -142 160 -56 22
-152 23 -203 1 -52 -22 -112 -80 -136 -131 -21 -45 -25 -129 -8 -188 5 -20 6
-43 2 -51 -4 -8 -79 -91 -166 -185 l-158 -170 -94 6 c-88 6 -97 4 -149 -21
-67 -33 -111 -84 -131 -150 -19 -63 -19 -90 1 -155 38 -130 185 -209 319 -171
55 15 128 77 158 134 21 41 23 72 14 218 -2 34 7 47 148 201 83 91 159 169
170 173 22 9 241 7 256 -1 16 -10 260 -317 271 -341 7 -16 7 -32 -1 -55 -32
-91 2 -217 75 -277 164 -135 406 -33 422 178 2 36 -2 70 -13 100 -9 25 -18 54
-19 66 -1 18 295 345 579 641 l50 52 71 -1 c152 -1 258 89 271 231 14 152 -86
270 -235 277 -37 2 -78 0 -92 -5z m120 -156 c66 -34 76 -121 19 -169 -45 -38
-92 -35 -135 8 -41 41 -46 89 -13 130 36 46 80 56 129 31z m-1577 -366 c28
-13 57 -58 57 -89 0 -59 -71 -119 -125 -106 -64 16 -100 86 -75 147 21 51 88
73 143 48z m-680 -739 c78 -61 36 -185 -63 -185 -44 0 -76 24 -97 73 -26 62
25 132 98 132 21 0 47 -8 62 -20z m1343 -14 c23 -23 34 -43 34 -62 0 -65 -68
-124 -126 -110 -43 11 -84 59 -84 98 1 65 44 107 109 108 25 0 42 -9 67 -34z"/>
<path d="M406 3169 c-23 -18 -26 -27 -26 -86 0 -289 259 -561 561 -589 55 -6
73 -4 94 10 53 35 52 103 -2 123 -15 6 -61 16 -101 23 -106 17 -197 66 -270
144 -84 90 -112 156 -137 319 -11 72 -66 98 -119 56z"/>
</g>
</svg>
