<?xml version="1.0" standalone="no"?>
<!DOCTYPE svg PUBLIC "-//W3C//DTD SVG 20010904//EN"
 "http://www.w3.org/TR/2001/REC-SVG-20010904/DTD/svg10.dtd">
<svg version="1.0" xmlns="http://www.w3.org/2000/svg"
 width="463.000000pt" height="463.000000pt" viewBox="0 0 463.000000 463.000000"
 preserveAspectRatio="xMidYMid meet">

<g transform="translate(0.000000,463.000000) scale(0.100000,-0.100000)"
fill="#4e7713" stroke="none">
<path d="M39 4599 c-20 -20 -20 -28 -17 -327 l3 -307 28 -56 c34 -69 105 -137
186 -178 l61 -31 -2 -1288 -3 -1287 -121 0 c-106 0 -125 -3 -143 -19 -43 -39
-21 -93 47 -117 l31 -11 3 -463 c3 -439 4 -464 22 -484 24 -27 68 -27 92 0 18
20 19 45 22 490 l3 469 2084 0 2085 0 0 -468 c0 -522 -1 -512 65 -512 66 0 65
-6 65 477 0 273 4 442 10 459 6 15 24 43 41 62 24 27 29 40 24 61 -12 50 -25
54 -157 55 l-123 1 -3 1287 -2 1287 62 33 c85 44 169 129 193 193 16 43 19 90
23 323 4 286 1 331 -24 357 -14 13 -259 15 -2275 15 l-2259 0 -21 -21z m528
-121 c13 -22 17 -413 4 -466 -19 -73 -55 -120 -114 -148 -67 -31 -120 -31
-184 1 -55 28 -94 77 -112 141 -12 42 -16 466 -4 477 3 4 95 7 204 7 147 0
200 -3 206 -12z m561 -5 c4 -10 7 -119 7 -243 0 -211 -1 -227 -22 -265 -41
-78 -114 -125 -191 -125 -63 0 -142 46 -177 104 l-30 49 -3 235 c-2 129 -1
240 2 248 4 11 43 14 206 14 182 0 201 -2 208 -17z m553 -13 c4 -14 7 -123 8
-243 1 -197 -1 -221 -18 -256 -38 -73 -115 -121 -197 -121 -50 0 -135 50 -169
98 l-30 44 -3 218 c-2 177 0 225 12 254 l15 36 188 -2 187 -3 7 -25z m563 8
c3 -13 6 -120 6 -239 0 -215 0 -215 -27 -270 -81 -159 -295 -156 -372 5 -19
39 -21 60 -21 284 l0 242 204 0 c203 0 204 0 210 -22z m564 -208 c3 -242 -2
-281 -45 -339 -29 -38 -113 -81 -158 -81 -82 0 -157 47 -198 124 -19 38 -21
59 -25 269 -2 125 -2 234 2 242 5 13 35 15 213 13 l208 -3 3 -225z m557 158
c4 -40 5 -150 3 -243 -3 -160 -5 -174 -29 -220 -32 -62 -97 -106 -169 -113
-97 -9 -190 60 -219 164 -12 42 -16 466 -4 477 3 4 97 7 209 7 l202 0 7 -72z
m560 -173 c0 -227 -1 -242 -22 -280 -41 -78 -114 -125 -191 -125 -63 0 -142
46 -177 104 l-30 49 -3 235 c-2 129 -1 240 2 248 5 12 41 14 213 12 l208 -3 0
-240z m555 0 c0 -224 -2 -249 -19 -284 -65 -126 -218 -158 -327 -68 -69 57
-74 81 -74 355 l0 242 210 0 210 0 0 -245z m-3241 -444 c143 -113 301 -121
450 -23 31 20 61 40 66 44 6 3 36 -14 68 -38 67 -50 137 -74 218 -74 90 0 141
21 258 107 14 10 27 5 79 -32 80 -55 138 -75 218 -75 77 0 152 26 225 79 l54
39 48 -35 c146 -107 302 -110 449 -9 l63 42 40 -29 c80 -58 136 -80 216 -85
93 -5 153 12 233 68 32 22 59 40 62 40 3 0 53 -28 110 -62 l104 -63 0 -1282 0
-1283 -444 0 -444 0 -5 343 c-5 379 -9 405 -74 529 -43 82 -147 185 -231 227
-31 16 -106 43 -167 60 -60 17 -115 33 -122 36 -8 3 11 39 51 98 84 126 111
210 110 337 -1 140 -40 255 -118 349 -218 260 -596 281 -831 46 -104 -103
-152 -210 -162 -355 -9 -149 25 -259 125 -399 29 -40 52 -75 50 -76 -2 -2 -50
-15 -107 -30 -142 -36 -190 -56 -265 -109 -100 -72 -170 -170 -212 -296 -15
-48 -18 -103 -22 -407 l-4 -353 -449 0 -449 0 2 1283 3 1282 105 62 c58 35
109 63 114 63 4 0 22 -11 38 -26 59 -49 129 -77 204 -82 94 -6 165 15 240 72
33 25 61 45 63 45 2 1 20 -12 40 -28z m1152 -621 c130 -24 253 -118 312 -239
30 -63 32 -72 32 -181 0 -109 -2 -118 -32 -181 -82 -166 -270 -268 -445 -239
-183 29 -325 170 -359 354 -32 175 70 370 235 447 97 46 166 56 257 39z m514
-1045 c120 -77 195 -152 233 -232 l27 -58 3 -357 3 -358 -857 0 -856 0 4 343
c5 313 7 347 26 399 28 77 73 140 134 188 54 43 196 115 207 105 3 -4 8 -135
11 -292 5 -284 5 -285 29 -304 22 -18 45 -19 450 -19 370 0 430 2 449 16 22
15 22 16 22 325 0 170 3 309 6 309 4 0 53 -29 109 -65z m-245 -210 l0 -235
-340 0 -340 0 0 235 0 235 340 0 340 0 0 -235z"/>
<path d="M1163 560 c-23 -9 -26 -17 -43 -95 -16 -74 -52 -122 -113 -151 -29
-13 -66 -24 -83 -24 -61 0 -69 -16 -69 -138 0 -123 8 -142 60 -142 44 0 65 26
65 81 0 24 4 49 8 55 4 6 35 26 70 43 78 39 130 92 173 176 l34 65 1060 0
1060 -1 60 -87 c51 -72 75 -97 150 -149 88 -61 90 -64 87 -99 -4 -44 28 -84
67 -84 55 0 71 33 71 145 0 78 -2 88 -25 110 -16 16 -36 25 -57 25 -96 1 -198
103 -198 199 0 16 -9 39 -19 52 l-19 24 -1159 2 c-647 1 -1168 -2 -1180 -7z"/>
</g>
</svg>
