<?xml version="1.0" standalone="no"?>
<!DOCTYPE svg PUBLIC "-//W3C//DTD SVG 20010904//EN"
 "http://www.w3.org/TR/2001/REC-SVG-20010904/DTD/svg10.dtd">
<svg version="1.0" xmlns="http://www.w3.org/2000/svg"
 width="461.000000pt" height="469.000000pt" viewBox="0 0 461.000000 469.000000"
 preserveAspectRatio="xMidYMid meet">

<g transform="translate(0.000000,469.000000) scale(0.100000,-0.100000)"
fill="#4e7713" stroke="none">
<path d="M670 4673 c-111 -19 -200 -84 -241 -176 l-24 -52 -3 -972 -2 -973 75
0 75 0 0 948 0 948 23 44 c13 26 36 53 57 65 35 20 46 20 1870 20 1824 0 1835
0 1870 -20 21 -12 44 -39 58 -65 l22 -44 0 -1591 0 -1590 -23 -39 c-12 -22
-38 -49 -57 -60 -34 -21 -48 -21 -872 -24 l-838 -3 0 -75 0 -75 853 3 852 3
56 26 c66 31 120 84 151 148 l23 46 3 1620 c3 1787 6 1681 -59 1770 -33 44
-94 89 -148 107 -28 10 -434 13 -1866 14 -1007 1 -1841 0 -1855 -3z"/>
<path d="M710 4290 l0 -70 75 0 75 0 0 70 0 70 -75 0 -75 0 0 -70z"/>
<path d="M1020 4290 l0 -70 75 0 75 0 0 70 0 70 -75 0 -75 0 0 -70z"/>
<path d="M1340 4290 l0 -70 70 0 70 0 0 70 0 70 -70 0 -70 0 0 -70z"/>
<path d="M710 3980 l0 -70 1790 0 1790 0 0 70 0 70 -1790 0 -1790 0 0 -70z"/>
<path d="M2092 3661 c-87 -5 -106 -9 -118 -25 -12 -16 -14 -93 -14 -437 0
-389 1 -418 18 -439 l19 -23 501 0 c474 -1 502 0 521 18 20 18 21 28 21 366
l0 348 -27 21 c-25 19 -37 21 -192 19 -196 -2 -213 3 -303 89 l-59 56 -102 7
c-109 8 -108 8 -265 0z m345 -200 c26 -30 65 -60 100 -78 57 -27 61 -28 206
-25 l147 3 0 -236 0 -235 -390 0 -390 0 0 310 0 310 143 0 142 0 42 -49z"/>
<path d="M731 3634 c-20 -26 -21 -37 -21 -430 0 -228 4 -413 9 -427 6 -14 18
-28 28 -31 10 -3 239 -7 510 -8 l492 -3 23 23 23 23 0 344 c0 317 -1 346 -18
362 -16 16 -39 18 -190 19 -206 1 -241 12 -323 99 l-51 55 -231 0 -231 0 -20
-26z m490 -199 l77 -75 164 0 c114 0 168 -4 176 -12 9 -9 12 -75 12 -235 l0
-223 -395 0 -395 0 0 310 0 310 142 0 142 0 77 -75z"/>
<path d="M3224 3639 c-18 -20 -19 -42 -19 -440 0 -415 0 -419 22 -440 21 -21
27 -22 395 -24 488 -4 625 2 650 27 17 17 18 41 18 358 l0 341 -25 25 c-25 25
-26 25 -193 22 -165 -2 -170 -1 -224 25 -34 17 -71 46 -97 77 l-42 50 -233 0
c-224 0 -234 -1 -252 -21z m467 -183 c80 -86 123 -100 299 -101 l145 0 3 -232
2 -233 -390 0 -390 0 0 310 0 310 140 0 141 0 50 -54z"/>
<path d="M1009 2493 c-53 -8 -63 -33 -64 -154 -1 -86 -4 -113 -17 -125 -14
-15 -109 -53 -132 -54 -4 0 -40 31 -80 69 -80 77 -109 95 -139 87 -12 -3 -104
-88 -204 -189 -222 -223 -218 -209 -108 -326 48 -52 75 -89 75 -103 0 -33 -45
-124 -65 -131 -9 -4 -61 -7 -116 -7 -93 0 -102 -2 -124 -25 l-25 -24 0 -259
c0 -326 -11 -305 157 -312 l118 -5 27 -50 c44 -80 39 -97 -47 -186 -112 -115
-116 -104 108 -325 100 -100 190 -184 200 -187 30 -11 67 11 142 83 39 39 79
70 89 70 32 0 113 -41 124 -63 6 -12 12 -65 14 -117 2 -71 8 -103 21 -123 l17
-27 270 0 c332 0 310 -10 310 146 0 103 1 106 29 135 16 16 37 29 46 29 9 0
30 7 46 16 l30 15 77 -75 c89 -86 115 -100 157 -81 17 7 108 91 203 187 212
215 208 202 92 323 -44 46 -80 88 -80 93 0 16 50 119 63 130 7 6 62 12 124 14
91 2 116 6 130 21 16 16 18 44 21 282 l3 265 -25 25 c-23 23 -32 25 -126 25
-56 0 -109 4 -119 10 -10 5 -31 39 -46 75 l-28 65 82 85 c118 123 123 107
-107 337 -155 156 -192 188 -216 188 -22 0 -46 -17 -105 -74 -42 -40 -86 -77
-98 -80 -28 -9 -118 29 -138 58 -11 15 -15 49 -15 122 0 157 16 149 -282 150
-133 1 -255 0 -269 -3z m403 -264 c3 -105 4 -113 27 -128 35 -23 272 -120 295
-121 10 0 53 34 95 75 l77 74 114 -114 114 -114 -68 -62 c-101 -93 -100 -85
-22 -274 65 -157 62 -155 190 -155 l106 0 0 -160 0 -160 -108 0 c-91 0 -111
-3 -124 -17 -14 -16 -77 -162 -114 -266 -19 -50 -5 -76 78 -151 l62 -57 -114
-114 -115 -115 -70 75 c-57 62 -75 75 -100 75 -16 -1 -91 -27 -165 -58 -100
-43 -138 -64 -147 -82 -8 -15 -13 -65 -13 -122 l0 -98 -161 0 -162 0 5 94 c8
141 8 141 -158 209 -77 31 -150 57 -164 57 -17 0 -46 -22 -99 -76 l-74 -76
-113 113 -114 114 75 75 c57 57 75 82 75 103 0 28 -101 282 -120 301 -6 6 -61
13 -123 16 l-112 5 -3 158 -3 157 106 0 c59 0 114 4 124 10 10 5 24 24 31 42
8 18 33 79 57 135 60 143 59 153 -27 234 -39 36 -70 70 -70 75 0 5 49 58 109
118 l109 109 75 -77 c48 -49 82 -76 96 -76 30 0 282 107 305 129 14 15 19 40
23 125 l6 106 153 0 152 0 4 -111z"/>
<path d="M1113 1775 c-285 -77 -457 -369 -385 -653 66 -258 292 -425 557 -409
203 12 367 120 455 302 81 165 74 357 -18 515 -64 109 -201 212 -327 245 -73
19 -212 18 -282 0z m299 -169 c121 -57 204 -167 229 -298 29 -161 -68 -335
-229 -411 -60 -28 -77 -32 -157 -32 -80 0 -97 3 -157 32 -122 57 -202 158
-228 286 -37 183 85 382 273 443 69 23 200 13 269 -20z"/>
<path d="M3255 2410 c-51 -20 -50 -14 -50 -462 l0 -420 24 -19 c22 -18 46 -19
521 -19 l499 0 20 26 c20 26 21 38 21 361 l0 334 -25 24 c-24 25 -27 25 -192
25 -155 0 -172 2 -218 24 -28 13 -69 44 -91 69 -23 26 -53 51 -68 57 -32 12
-411 13 -441 0z m463 -222 l80 -78 171 0 171 0 0 -235 0 -235 -390 0 -390 0 0
316 0 316 139 -4 139 -3 80 -77z"/>
<path d="M2200 2341 l0 -69 96 -4 96 -4 42 -46 c87 -96 134 -112 319 -110
l137 3 0 -236 0 -235 -115 0 -115 0 0 -75 0 -75 170 0 c157 0 172 2 190 20 19
19 20 33 20 365 0 332 -1 346 -20 365 -18 18 -33 20 -197 20 -208 0 -231 7
-307 95 l-47 55 -135 0 -134 0 0 -69z"/>
</g>
</svg>
