<?xml version="1.0" standalone="no"?>
<!DOCTYPE svg PUBLIC "-//W3C//DTD SVG 20010904//EN"
 "http://www.w3.org/TR/2001/REC-SVG-20010904/DTD/svg10.dtd">
<svg version="1.0" xmlns="http://www.w3.org/2000/svg"
 width="469.000000pt" height="469.000000pt" viewBox="0 0 469.000000 469.000000"
 preserveAspectRatio="xMidYMid meet">

<g transform="translate(0.000000,469.000000) scale(0.100000,-0.100000)"
fill="#4e7713" stroke="none">
<path d="M1415 4671 c-96 -24 -181 -98 -214 -187 -20 -51 -21 -76 -21 -359 l0
-305 -68 0 c-82 0 -168 -21 -236 -58 -28 -15 -110 -85 -183 -155 -170 -164
-180 -169 -378 -177 -164 -7 -186 -13 -242 -72 -64 -67 -63 -54 -63 -628 0
-568 -1 -562 58 -623 57 -60 92 -70 272 -77 198 -7 202 -9 426 -157 233 -154
202 -148 709 -148 325 0 429 3 458 13 21 8 65 41 102 78 l64 64 735 0 c712 0
737 1 789 20 73 27 130 79 164 148 l28 57 0 1175 0 1175 -23 46 c-31 63 -86
117 -152 148 l-55 26 -1070 2 c-588 0 -1083 -2 -1100 -6z m537 -479 l3 -338
30 -59 c23 -45 42 -66 79 -90 l49 -30 306 0 306 0 48 28 c58 35 93 86 107 156
5 30 10 193 10 363 l0 309 333 -3 c380 -3 382 -4 425 -88 l22 -45 -2 -1132
c-3 -1125 -3 -1132 -24 -1159 -11 -15 -33 -37 -48 -48 -27 -21 -36 -21 -758
-21 l-731 0 -12 36 -13 36 59 17 c69 19 138 76 171 140 28 55 35 142 15 200
l-16 46 37 19 c49 25 107 87 127 133 19 47 20 167 1 212 -19 46 -71 102 -121
132 l-43 25 14 46 c31 102 8 197 -65 272 -78 80 -87 81 -543 81 l-388 0 0 488
c0 535 -1 530 61 575 42 31 81 35 326 36 l231 1 4 -338z m786 32 c3 -328 -2
-368 -48 -391 -19 -10 -88 -13 -283 -11 -258 3 -259 3 -278 27 -18 22 -19 43
-19 345 0 178 3 326 7 329 4 4 144 6 312 5 l306 -3 3 -301z m-1568 -674 l0
-120 -50 0 c-41 0 -56 -5 -75 -25 -32 -31 -32 -69 0 -100 l24 -25 498 0 c299
0 512 -4 534 -10 78 -22 111 -105 67 -169 -37 -55 -63 -59 -362 -60 -263 -1
-270 -2 -293 -23 -33 -30 -31 -80 3 -107 26 -20 38 -21 376 -21 379 0 383 -1
427 -56 41 -52 19 -138 -43 -168 -29 -14 -81 -16 -384 -16 -338 0 -350 -1
-376 -21 -19 -15 -26 -30 -26 -54 0 -24 7 -39 26 -54 26 -20 39 -21 296 -21
204 0 276 -3 301 -14 99 -42 101 -162 4 -207 -38 -17 -68 -19 -311 -19 -263 0
-270 -1 -293 -22 -33 -30 -31 -80 3 -107 24 -19 40 -21 181 -21 109 0 163 -4
187 -14 99 -41 85 -185 -22 -217 -25 -7 -161 -9 -412 -7 -327 3 -381 6 -419
21 -24 9 -119 67 -210 127 -216 142 -241 151 -450 159 -163 7 -163 7 -187 34
l-24 28 0 493 c0 470 1 495 19 517 18 22 28 24 168 30 81 4 162 11 178 17 82
26 142 69 268 191 165 159 199 179 320 180 l57 1 0 -120z"/>
<path d="M2757 2552 c-14 -15 -17 -41 -17 -134 0 -130 8 -148 72 -148 60 0 71
22 71 150 1 92 -2 113 -18 130 -24 26 -85 27 -108 2z"/>
<path d="M3070 2550 c-18 -18 -20 -33 -20 -130 0 -97 2 -112 20 -130 30 -30
83 -27 109 6 18 23 21 41 21 124 0 83 -3 101 -21 124 -26 33 -79 36 -109 6z"/>
<path d="M3380 2550 c-18 -18 -20 -33 -20 -130 0 -97 2 -112 20 -130 30 -30
83 -27 109 6 18 23 21 41 21 124 0 83 -3 101 -21 124 -26 33 -79 36 -109 6z"/>
<path d="M3908 1706 c-56 -15 -73 -28 -105 -79 -36 -58 -69 -67 -235 -67 -211
0 -304 -28 -445 -134 -112 -84 -130 -89 -368 -97 -232 -7 -263 -14 -352 -75
-57 -39 -114 -115 -138 -182 -8 -24 -18 -79 -21 -123 -7 -75 -8 -79 -28 -73
-12 4 -266 99 -566 211 -511 193 -549 206 -615 207 -80 1 -128 -19 -182 -76
-44 -46 -63 -96 -63 -170 0 -72 23 -128 72 -175 18 -17 178 -119 355 -227 178
-108 423 -257 545 -333 258 -159 309 -185 398 -209 58 -15 146 -17 850 -18
l785 -1 67 -38 66 -37 294 0 294 0 45 29 c25 15 56 41 68 57 52 66 51 48 51
767 0 656 0 672 -20 713 -32 65 -97 120 -159 133 -74 16 -532 13 -593 -3z
m555 -147 c69 -19 67 -2 67 -697 0 -638 -2 -672 -40 -692 -11 -6 -129 -10
-280 -10 l-261 0 -24 25 -25 24 0 649 c0 636 0 650 20 675 11 14 30 28 43 30
49 9 464 6 500 -4z m-725 -161 c9 -9 12 -153 12 -585 l0 -573 -777 2 -778 3
-57 27 c-94 44 -1141 687 -1171 719 -46 50 -27 127 37 149 33 11 63 1 569
-189 293 -110 560 -208 593 -217 47 -13 127 -18 384 -24 298 -6 330 -9 384
-29 33 -11 76 -31 95 -42 50 -29 99 -29 122 0 42 52 13 104 -86 154 -106 53
-145 60 -380 64 -121 2 -232 9 -247 15 -80 31 -43 195 60 263 52 35 121 45
296 45 210 0 281 20 411 117 124 93 186 111 380 112 97 1 145 -3 153 -11z"/>
</g>
</svg>
